<?xml version="1.0" encoding="UTF-8"?>
<svg id="Layer_1" data-name="Layer 1" xmlns="http://www.w3.org/2000/svg" viewBox="0 0 480 100">
  <defs>
    <style>
      .cls-1 {
        fill: #1d4cb3;
      }
    </style>
  </defs>
  <g>
    <path class="cls-1" d="M98.87,18.69h41.16v8.86h-31.09v16.85h25.27v8.86h-25.27v28.05h-10.07V18.69Z"/>
    <path class="cls-1" d="M165.57,44.31c-6.6,0-12.68,6.08-12.68,20.15v16.85h-9.47v-45.07h9.47v8.6c2.08-5.38,8.16-9.29,13.89-9.29,1.91,0,2.87.26,3.3.26v9.03c-.7-.17-2.34-.52-4.52-.52Z"/>
    <path class="cls-1" d="M176.51,18.43h10.59v10.68h-10.59v-10.68ZM177.03,36.24h9.47v45.07h-9.47v-45.07Z"/>
    <path class="cls-1" d="M216.98,35.54c13.98,0,21.36,10.42,21.28,21.62,0,1.74-.17,3.82-.17,3.82h-33.52c.87,8.25,5.82,12.94,13.11,12.94,5.56,0,9.99-2.6,11.03-7.21h9.29c-1.56,9.81-9.81,15.28-20.58,15.28-14.24,0-22.23-11.03-22.23-23.27s7.56-23.19,21.8-23.19ZM228.09,53.52c-.43-6.08-4.34-10.51-11.12-10.51-6.34,0-10.59,3.91-11.98,10.51h23.1Z"/>
    <path class="cls-1" d="M247.02,36.24h9.47v7.64c3.13-5.12,8.51-8.34,14.94-8.34,9.55,0,16.24,6.34,16.24,16.07v29.7h-9.47v-27.61c0-5.64-3.56-9.64-9.29-9.64-7.73,0-12.42,6.6-12.42,17.45v19.8h-9.47v-45.07Z"/>
    <path class="cls-1" d="M295.91,58.73c0-13.55,8.08-23.19,21.36-23.19,5.73,0,11.03,2.61,13.72,6.43v-23.97h9.47v63.31h-9.47v-5.82c-2,3.65-7.38,6.51-13.55,6.51-13.55,0-21.54-9.73-21.54-23.27ZM331.69,58.73c0-9.03-5.3-14.94-13.03-14.94s-13.03,5.91-13.03,14.94,5.21,15.02,13.03,15.02,13.03-5.99,13.03-15.02Z"/>
    <path class="cls-1" d="M351.57,18h9.47v63.31h-9.47V18Z"/>
    <path class="cls-1" d="M371.72,18.43h10.59v10.68h-10.59v-10.68ZM372.24,36.24h9.47v45.07h-9.47v-45.07Z"/>
    <path class="cls-1" d="M412.27,18.69h10.68l24.32,62.61h-10.85l-5.64-14.94h-26.66l-5.56,14.94h-10.51l24.23-62.61ZM427.47,57.6l-10.07-26.57-9.99,26.57h20.06Z"/>
    <path class="cls-1" d="M454.3,18.69h10.07v62.61h-10.07V18.69Z"/>
  </g>
  <g>
    <ellipse class="cls-1" cx="25.44" cy="27.85" rx="9.82" ry="9.85"/>
    <ellipse class="cls-1" cx="25.44" cy="72.15" rx="9.82" ry="9.85"/>
    <path class="cls-1" d="M43.24,37.2c.76-.14,1.81-.27,3.06-.3h5.44c3.15,0,5.71-2.56,5.71-5.71v-6.68c0-3.15-2.56-5.71-5.71-5.71h-6.63c-3.15,0-5.71,2.56-5.71,5.71l-.21,3.96c-.05.69-.14,1.51-.32,2.4-.37,1.83-1.01,3.15-1.3,3.68,0,0-.87,1.67-2.01,2.84-.41.43-.87.82-.87.82-.18.14-.37.3-.59.48-1.99,1.49-4.09,1.97-4.75,2.1-.76.16-2.51.18-3.22.2h-4c-3.15,0-5.71,2.56-5.71,5.72v6.67c0,3.16,2.56,5.72,5.71,5.72h6.79c3.13,0,5.71-2.58,5.71-5.72v-4.78c-.05-1.65.05-4.73,1.51-6.79.91-1.28,2.35-2.42,2.6-2.61.39-.3,1.1-.85,2.13-1.3.23-.11.96-.39,2.37-.66v-.04Z"/>
    <path class="cls-1" d="M74.11,18.8h-6.99c-3.06,0-5.53,2.47-5.53,5.53v4.71s0,3.27-.8,5.71c-.85,2.42-3.02,4.6-5.19,5.4-2.54.92-5.51.8-7.02.8h-4.25c-3.04,0-5.51,2.47-5.51,5.53v7.02c0,3.06,2.47,5.53,5.51,5.53h7.01c3.04,0,5.51-2.47,5.51-5.53l.05-2.93c-.04-1.08.07-3.32.6-4.96.2-.6.59-1.72,1.48-2.95.64-.87,1.26-1.42,1.9-2.01,1.16-1.03,2.13-1.64,2.4-1.78.59-.36,1.6-.96,3.04-1.4,1.28-.39,2.24-.46,3.88-.57.96-.07,2.29-.11,3.89-.02,3.06,0,5.53-2.47,5.53-5.53v-7.02c0-3.06-2.47-5.53-5.53-5.53h.02Z"/>
  </g>
</svg>